<?xml version="1.0" encoding="UTF-8"?>
<!DOCTYPE svg PUBLIC "-//W3C//DTD SVG 1.1//EN" "http://www.w3.org/Graphics/SVG/1.1/DTD/svg11.dtd">
<!-- Creator: CorelDRAW 2018 (64-Bit) -->
<svg xmlns="http://www.w3.org/2000/svg" xml:space="preserve" width="156px" height="62px" version="1.1" style="shape-rendering:geometricPrecision; text-rendering:geometricPrecision; image-rendering:optimizeQuality; fill-rule:evenodd; clip-rule:evenodd"
viewBox="0 0 85.8 34.07"
 xmlns:xlink="http://www.w3.org/1999/xlink">
 <defs>
  <style type="text/css">
   <![CDATA[
    .fil1 {fill:#D9EFFC}
    .fil0 {fill:#46A2DA}
    .fil2 {fill:#D9EFFC;fill-rule:nonzero}
   ]]>
  </style>
 </defs>
 <g id="Слой_x0020_1">
  <metadata id="CorelCorpID_0Corel-Layer"/>
  <g id="_2164497638656">
   <g>
    <path class="fil0" d="M4.33 10.26c0.05,1.18 0.34,2.35 0.9,3.46l0 0c0.03,0.06 0.07,0.13 0.1,0.19l0 0c0.03,0.06 0.07,0.13 0.11,0.19l0.1 0.18c0.93,1.54 2.23,2.68 3.72,3.37 -0.09,0.12 -0.18,0.24 -0.27,0.36l-0.01 0 0 0.01c-0.49,0.73 -0.89,1.37 -1.39,2.1 -0.31,0.46 -0.61,0.93 -0.93,1.38 -0.12,0.16 -0.23,0.31 -0.35,0.47 -0.05,0.06 -0.11,0.2 -0.17,0.25 -0.03,0.02 -0.08,0.04 -0.12,0.05 -0.09,0.03 -0.24,0.06 -0.33,0.09 -0.14,0.03 -0.23,0.07 -0.35,0.14 -0.24,0.14 -0.36,0.45 -0.5,0.68 -0.18,0.32 -0.17,0.43 -0.39,0.82 -0.08,0.14 -0.18,0.29 -0.26,0.43 -0.13,0.23 -0.3,0.58 -0.16,0.81 0.05,0.13 -0.04,0.35 0.03,0.48 0.03,0.06 0.06,0.1 0.11,0.12 0.06,0.08 0.12,0.15 0.2,0.17 0.05,0.02 0.12,0.08 0.18,0.11 0.09,0.03 0.14,-0.04 0.22,0.02 0.12,0.03 0.32,-0.01 0.32,-0.01 0,0 0.19,0.13 0.4,0.19 0.26,0.11 0.93,0.36 1.34,0.46 0.88,0.23 1.52,0.36 2.28,0.39 0.6,0.01 1.22,0.03 1.82,-0.03 0.5,-0.06 1.03,-0.11 1.52,-0.24 0.64,-0.16 1.28,-0.34 1.93,-0.52 0.67,-0.19 1.09,-0.15 1.85,-0.32 0.27,-0.06 0.5,-0.04 0.78,-0.07 0.29,0.03 0.55,0.01 0.83,0.07 0.75,0.17 1.18,0.13 1.85,0.32 0.64,0.18 1.28,0.36 1.93,0.52 0.48,0.13 1.01,0.18 1.51,0.24 0.6,0.06 1.22,0.04 1.82,0.03 0.76,-0.03 1.4,-0.16 2.28,-0.39 0.42,-0.1 1.08,-0.35 1.34,-0.46 0.21,-0.06 0.4,-0.19 0.4,-0.19 0,0 0.2,0.04 0.33,0.01 0.08,-0.06 0.13,0.01 0.21,-0.02 0.04,-0.02 0.09,-0.05 0.13,-0.08 -0.37,2.04 -1.47,3.93 -3.2,5.24l-0.16 0.12c-0.26,0.17 -0.53,0.33 -0.81,0.49 -7.93,4.52 -18.55,1.85 -23.23,-6.35 -4.66,-8.17 -1.81,-18.56 6.36,-23.21 -2.87,1.63 -4.42,4.79 -4.27,7.93zm7.5 8.12c0.54,0.06 1.09,0.07 1.64,0.02 0.05,0.32 0.11,0.64 0.12,0.9 0.01,0.24 -0.01,0.97 -0.09,1.2 -0.05,0.13 -0.09,0.3 -0.11,0.44 -0.05,0.26 -0.27,0.31 -0.31,0.34 -1.56,0.44 -4.61,1.69 -5.3,2.12 -0.04,0.03 -0.04,-0.05 0.04,-0.15 0.46,-0.51 1.47,-1.7 1.87,-2.12 0.37,-0.39 0.49,-0.48 0.93,-0.96 0.16,-0.18 0.65,-0.83 0.81,-1.02 0.12,-0.15 0.18,-0.24 0.23,-0.35 0.05,-0.1 0.09,-0.21 0.13,-0.32l0.04 -0.1zm9.18 -2.22c0.2,0 0.4,0 0.6,0l0.2 0.69c0.11,0.38 0.19,0.8 0.31,1.18 0.05,0.15 0.1,0.3 0.15,0.45 0.04,0.11 0.08,0.22 0.13,0.32 0.05,0.11 0.12,0.2 0.23,0.35 0.16,0.19 0.65,0.84 0.81,1.02 0.45,0.48 0.57,0.57 0.93,0.96 0.4,0.42 1.41,1.61 1.87,2.12 0.08,0.1 0.08,0.18 0.04,0.15 -0.68,-0.43 -3.74,-1.68 -5.3,-2.12 -0.04,-0.03 -0.25,-0.08 -0.3,-0.34 -0.03,-0.14 -0.06,-0.31 -0.11,-0.44 -0.09,-0.23 -0.1,-0.96 -0.09,-1.2 0.01,-0.48 0.17,-1.15 0.23,-1.62l0.09 -0.45 0.21 -1.07zm3.08 0.45c1.82,0.62 3.42,1.84 4.46,3.54l0 0.01c0.04,0.06 0.07,0.12 0.11,0.18l0.1 0.18 0 0c0.64,1.19 0.97,2.47 1.01,3.74 -0.05,-0.08 -0.11,-0.17 -0.15,-0.26 -0.23,-0.39 -0.22,-0.5 -0.4,-0.82 -0.13,-0.23 -0.26,-0.54 -0.5,-0.68 -0.12,-0.07 -0.21,-0.11 -0.35,-0.14 -0.09,-0.03 -0.24,-0.06 -0.33,-0.09 -0.04,-0.01 -0.08,-0.03 -0.12,-0.05 -0.05,-0.05 -0.12,-0.19 -0.16,-0.25 -0.12,-0.16 -0.24,-0.31 -0.36,-0.47 -0.32,-0.45 -0.61,-0.92 -0.93,-1.38 -0.5,-0.73 -0.9,-1.37 -1.39,-2.1l0 -0.01 -0.01 0c-0.14,-0.18 -0.27,-0.37 -0.4,-0.55 -0.2,-0.28 -0.39,-0.56 -0.58,-0.85z"/>
    <path class="fil1" d="M31.83 8.68c4.51,7.89 2,17.86 -5.55,22.72 1.84,-1.33 3.03,-3.27 3.4,-5.38l0.02 -0.01c0.07,-0.02 0.13,-0.09 0.19,-0.17 0.05,-0.02 0.08,-0.06 0.11,-0.12 0.07,-0.13 -0.01,-0.35 0.03,-0.48 0.14,-0.23 -0.03,-0.58 -0.16,-0.81 -0.02,-0.03 -0.04,-0.07 -0.06,-0.11 -0.05,-1.33 -0.42,-2.69 -1.15,-3.98 -1.03,-1.8 -2.69,-3.09 -4.57,-3.73 -0.08,-0.13 -0.17,-0.26 -0.25,-0.4 -0.15,-0.26 -0.22,-0.6 -0.26,-0.89 -0.06,-0.5 -0.1,-1.19 -0.15,-1.69 -0.07,-0.8 -0.09,-1.93 -0.59,-2.57 -0.4,-0.5 -1.42,-0.89 -2,-1.13 -0.45,-0.19 -0.91,-0.36 -1.36,-0.55 -0.13,-0.05 -0.63,-0.32 -0.73,-0.42 -0.29,-0.33 -0.32,-1.12 -0.35,-1.53 0,-0.01 0,-0.02 0.01,-0.03 0.01,-0.06 0.1,-0.22 0.14,-0.28 0.11,-0.17 0.2,-0.34 0.28,-0.52 0.07,-0.15 0.22,-0.22 0.34,-0.31 0.13,-0.1 0.21,-0.24 0.25,-0.4 0.08,-0.26 0.08,-0.6 0.04,-0.87l0 -0.22 -0.02 -0.05c-0.05,-0.12 -0.11,-0.12 -0.21,-0.19 -0.1,-1.4 -0.64,-2.49 -2.2,-2.51l0 0c0,0 -0.01,0 -0.02,0 0,0 -0.01,0 -0.01,0l0 0c-1.56,0.02 -2.07,1.11 -2.17,2.51 -0.1,0.07 -0.16,0.07 -0.21,0.19l-0.02 0.05 0 0.22c-0.04,0.27 -0.03,0.61 0.04,0.87 0.04,0.16 0.13,0.3 0.26,0.4 0.11,0.09 0.26,0.16 0.34,0.31 0.07,0.18 0.16,0.35 0.27,0.52 0.04,0.06 0.13,0.22 0.14,0.28 0.01,0.01 0.01,0.02 0.01,0.03 -0.02,0.41 -0.06,1.2 -0.35,1.53 -0.09,0.1 -0.6,0.37 -0.73,0.42 -0.45,0.19 -0.91,0.36 -1.36,0.55 -0.58,0.24 -1.6,0.63 -2,1.13 -0.5,0.64 -0.52,1.77 -0.59,2.57 -0.04,0.5 -0.09,1.19 -0.15,1.69 -0.04,0.29 -0.1,0.63 -0.26,0.89 -0.25,0.43 -0.53,0.85 -0.82,1.25l-0.14 0.19c-1.54,-0.72 -2.89,-1.91 -3.82,-3.55 -2.33,-4.07 -0.92,-9.45 3.16,-11.77 8.27,-4.71 18.4,-2.12 23.23,6.35zm-10.22 7.48c-0.2,0 -0.4,0 -0.6,0l0.25 -1.22c0.05,0.18 0.21,0.74 0.35,1.22zm-8.14 2.24c-0.55,0.05 -1.1,0.04 -1.64,-0.02 0.04,-0.12 0.08,-0.23 0.11,-0.35 0.12,-0.38 0.2,-0.8 0.31,-1.18 0.08,-0.29 0.47,-1.62 0.55,-1.91l0.46 2.29 0.09 0.45c0.03,0.21 0.07,0.47 0.12,0.72z"/>
   </g>
   <path class="fil2" d="M40.43 14.83l0 -4.46 1.91 0 3.22 4.46 2.63 0 -3.41 -4.71c1.44,-0.44 2.29,-1.59 2.29,-3.06 0,-0.96 -0.35,-1.75 -1.03,-2.35 -0.67,-0.61 -1.6,-0.91 -2.77,-0.91l-5.1 0 0 11.03 2.26 0zm0 -9.05l2.71 0c1.03,0 1.64,0.51 1.64,1.34 0,0.87 -0.61,1.34 -1.64,1.34l-2.71 0 0 -2.68z"/>
   <path id="1" class="fil2" d="M51.09 14.83l1.08 -2.55 4.67 0 1.08 2.55 2.42 0 -4.73 -11.09 -2.18 0 -4.72 11.09 2.38 0zm3.42 -8.26l1.6 3.83 -3.23 0 1.63 -3.83z"/>
   <polygon id="2" class="fil2" points="64.07,14.83 64.07,7.28 66.65,10.83 67.91,10.83 70.45,7.28 70.45,14.83 72.69,14.83 72.69,3.8 70.45,3.8 67.25,8.37 64.05,3.8 61.8,3.8 61.8,14.83 "/>
   <path id="3" class="fil2" d="M76.55 14.83l1.09 -2.55 4.66 0 1.09 2.55 2.41 0 -4.73 -11.09 -2.17 0 -4.73 11.09 2.38 0zm3.42 -8.26l1.61 3.83 -3.23 0 1.62 -3.83z"/>
   <polygon id="4" class="fil2" points="43.57,29.99 43.57,24.99 47.82,18.96 45.22,18.96 42.47,22.88 39.73,18.96 37.05,18.96 41.32,25.04 41.32,29.99 "/>
   <path id="5" class="fil2" d="M51.71 27.06c-0.64,-0.68 -0.96,-1.55 -0.96,-2.59 0,-1.04 0.32,-1.9 0.96,-2.58 0.65,-0.68 1.47,-1.03 2.44,-1.03 0.98,0 1.78,0.35 2.43,1.03 0.65,0.68 0.98,1.54 0.98,2.58 0,1.04 -0.33,1.91 -0.98,2.59 -0.65,0.67 -1.45,1.02 -2.43,1.02 -0.97,0 -1.79,-0.35 -2.44,-1.02zm-3.28 -2.59c0,1.59 0.54,2.95 1.63,4.07 1.08,1.12 2.46,1.67 4.09,1.67 1.64,0 3,-0.55 4.09,-1.67 1.08,-1.12 1.63,-2.48 1.63,-4.07 0,-1.6 -0.55,-2.96 -1.63,-4.06 -1.09,-1.12 -2.45,-1.67 -4.09,-1.67 -1.63,0 -3.01,0.55 -4.09,1.67 -1.09,1.1 -1.63,2.46 -1.63,4.06z"/>
   <path id="6" class="fil2" d="M67.98 30.21c0.93,0 1.8,-0.17 2.6,-0.51 0.81,-0.33 1.44,-0.75 1.89,-1.24l0 -4.87 -2.27 0 0 3.8c-0.51,0.49 -1.26,0.72 -2.22,0.72 -1,0 -1.86,-0.33 -2.53,-0.97 -0.68,-0.65 -1.03,-1.53 -1.03,-2.62 0,-1.1 0.35,-1.99 1.06,-2.65 0.71,-0.67 1.62,-1.01 2.74,-1.01 1.09,0 2.13,0.32 3.15,0.95l0 -2.24c-0.93,-0.55 -2.03,-0.83 -3.31,-0.83 -1.72,0 -3.15,0.53 -4.27,1.6 -1.12,1.08 -1.68,2.45 -1.68,4.13 0,1.67 0.56,3.04 1.68,4.13 1.12,1.07 2.52,1.61 4.19,1.61z"/>
   <path id="7" class="fil2" d="M76.55 29.99l1.09 -2.56 4.66 0 1.09 2.56 2.41 0 -4.73 -11.1 -2.17 0 -4.73 11.1 2.38 0zm3.42 -8.26l1.61 3.83 -3.23 0 1.62 -3.83z"/>
  </g>
 </g>
</svg>
